# xmcd
#
# Track frame offsets: 
#        150
#        18899
#        36711
#        56435
#        75559
#        93633
#        110282
#        126894
#        146093
#        163642
#        179804
#        198366
#        211640
#        227652
#
# Disc length: 3311 seconds
#
# Revision: 1
# Processed by: cddbd v1.5.2PL0 Copyright (c) Steve Scherf et al.
# Submitted via: ExactAudioCopy v0.95b4
#
DISCID=bf0ced0e
DTITLE=เสียงอิสาน - รวมดาวสาวเสียงอิสาน
DYEAR=2006
DGENRE=Country
TTITLE0=ดันดารา
TTITLE1=ขาดอ้ายบ่ได้
TTITLE2=จีบบ่ถืกคน
TTITLE3=ใจช้ำที่ลำน้ำมูล
TTITLE4=สโลแกนใจ
TTITLE5=สาวเทคโน โนแฟน
TTITLE6=เด็กเสิร์ฟ ม.3
TTITLE7=มหาลัยชีวิต
TTITLE8=ดอกหญ้าริมทาง
TTITLE9=ฮักหน่อยๆ
TTITLE10=ขอความมั่นใจ
TTITLE11=จักแนมเฮ็ดหยัง
TTITLE12=อีหล่าลูกกก
TTITLE13=มักบ่าวหน้าฮ้าน
EXTD=
EXTT0=
EXTT1=
EXTT2=
EXTT3=
EXTT4=
EXTT5=
EXTT6=
EXTT7=
EXTT8=
EXTT9=
EXTT10=
EXTT11=
EXTT12=
EXTT13=
PLAYORDER=
